<svg version="1.0" xmlns="http://www.w3.org/2000/svg" viewBox="0 0 512 512"><switch><g><path fill="#00A89E" d="M63.15 354.59a11.086 11.086 0 01-11.08-11.08V115.29c0-4.34 2.53-8.28 6.48-10.08L286.77 1a11.086 11.086 0 0115.69 10.08V239.3c0 4.34-2.53 8.28-6.48 10.08L67.75 353.59c-1.47.67-3.04 1-4.6 1zm11.08-232.18v203.86l206.06-94.08V28.32L74.23 122.41zm217.14 116.9h.02-.02z"/><path fill="#177A8C" d="M115.62 407.06a11.086 11.086 0 01-11.08-11.08V167.76c0-4.34 2.53-8.28 6.48-10.08l228.22-104.2a11.06 11.06 0 0110.59.76c3.17 2.04 5.09 5.55 5.09 9.32v228.22c0 4.34-2.53 8.28-6.48 10.08l-228.22 104.2c-1.47.67-3.04 1-4.6 1zm11.08-232.18v203.86l206.06-94.09V80.79L126.7 174.88zm217.14 116.89h.02-.02z"/><path fill="#20537B" d="M168.09 459.53a11.086 11.086 0 01-11.08-11.08V220.23c0-4.34 2.53-8.28 6.48-10.08l228.22-104.2c3.42-1.57 7.42-1.28 10.59.76s5.09 5.55 5.09 9.32v228.22c0 4.34-2.53 8.28-6.48 10.08l-228.22 104.2c-1.47.67-3.04 1-4.6 1zm11.08-232.18v203.86l206.06-94.08V133.26l-206.06 94.09zm217.14 116.89h.02-.02z"/><path fill="#262A6A" d="M220.55 512a11.086 11.086 0 01-11.08-11.08V272.69c0-4.34 2.53-8.28 6.48-10.08l228.22-104.2a11.06 11.06 0 0110.59.76c3.17 2.04 5.09 5.55 5.09 9.32v228.22c0 4.34-2.53 8.28-6.48 10.08L225.16 511c-1.47.67-3.04 1-4.61 1zm11.09-232.18v203.86L437.7 389.6V185.73l-206.06 94.09zm217.14 116.89h.02-.02z"/></g></switch></svg>