<svg version="1.0" xmlns="http://www.w3.org/2000/svg" viewBox="0 0 480.06 176.8"><switch><g><path fill="#00A89E" d="M3.83 122.44c-.72 0-1.44-.2-2.07-.61-1.1-.7-1.76-1.92-1.76-3.22v-78.8c0-1.5.87-2.86 2.24-3.48L81.04.35c1.19-.54 2.56-.44 3.66.26s1.76 1.92 1.76 3.22v78.81c0 1.5-.87 2.86-2.24 3.48L5.42 122.1c-.51.23-1.05.34-1.59.34zm3.82-80.17v70.39L78.8 80.17V9.78L7.65 42.27zm74.98 40.36z"/><path fill="#177A8C" d="M21.95 140.56c-.72 0-1.44-.2-2.07-.61-1.1-.7-1.76-1.92-1.76-3.22v-78.8c0-1.5.87-2.86 2.24-3.48l78.81-35.98c1.18-.54 2.56-.44 3.66.26s1.76 1.92 1.76 3.22v78.81c0 1.5-.87 2.86-2.24 3.48l-78.81 35.98c-.51.23-1.05.34-1.59.34zm3.82-80.17v70.39l71.15-32.49V27.9L25.77 60.39zm74.98 40.36z"/><path fill="#20537B" d="M40.06 158.68c-.72 0-1.44-.2-2.07-.61-1.1-.7-1.76-1.92-1.76-3.22v-78.8c0-1.5.87-2.86 2.24-3.48l78.81-35.98c1.18-.54 2.56-.44 3.66.26s1.76 1.92 1.76 3.22v78.81c0 1.5-.87 2.86-2.24 3.48l-78.81 35.98c-.5.23-1.05.34-1.59.34zm3.83-80.18v70.39l71.15-32.49V46.02L43.89 78.5zm74.98 40.37z"/><path fill="#262A6A" d="M58.18 176.8c-.72 0-1.44-.2-2.07-.61-1.1-.7-1.76-1.92-1.76-3.22V94.16c0-1.5.87-2.86 2.24-3.48L135.4 54.7c1.18-.54 2.56-.44 3.66.26s1.76 1.92 1.76 3.22v78.81c0 1.5-.87 2.86-2.24 3.48l-78.81 35.98c-.51.23-1.05.35-1.59.35zm3.83-80.18v70.39l71.15-32.49V64.13L62.01 96.62zm74.98 40.37z"/><g fill="#262A6A"><path d="M203.29 71.45c1.73 0 3.16.58 4.29 1.74 1.13 1.16 1.69 2.61 1.69 4.34v25.33c0 7.05-1.96 12.63-5.88 16.75-3.92 4.12-9.57 6.18-16.95 6.18s-13.01-2.06-16.9-6.18c-3.89-4.12-5.83-9.7-5.83-16.75V77.53c0-1.73.56-3.17 1.7-4.34 1.13-1.16 2.56-1.74 4.29-1.74s3.16.58 4.29 1.74c1.13 1.16 1.7 2.61 1.7 4.34v25.33c0 4.05.9 7.06 2.69 9.02s4.49 2.94 8.08 2.94c3.66 0 6.38-.98 8.18-2.94 1.79-1.96 2.69-4.97 2.69-9.02V77.53c0-1.73.56-3.17 1.69-4.34 1.11-1.16 2.54-1.74 4.27-1.74zM267.25 81.77c-.96-3.42-2.73-6.17-5.28-8.23-2.56-2.06-6.3-3.09-11.22-3.09-2.26 0-4.35.35-6.28 1.05-1.93.7-3.66 1.61-5.18 2.74-1.53 1.13-2.86 2.34-3.99 3.64-.4.46-.76.91-1.1 1.35v-1.7c0-1.73-.57-3.17-1.7-4.34-1.13-1.16-2.56-1.74-4.29-1.74s-3.16.58-4.29 1.74c-1.13 1.16-1.7 2.61-1.7 4.34v41.18c0 1.73.56 3.17 1.7 4.34 1.13 1.16 2.56 1.75 4.29 1.75s3.16-.58 4.29-1.75c1.13-1.16 1.7-2.61 1.7-4.34V93.18c0-2.19.48-4.17 1.45-5.93.96-1.76 2.36-3.17 4.19-4.24 1.83-1.06 4.07-1.6 6.73-1.6 2.72 0 4.82.53 6.28 1.6 1.46 1.06 2.48 2.48 3.04 4.24.56 1.76.85 3.74.85 5.93v25.52c0 1.73.56 3.17 1.69 4.34 1.13 1.16 2.56 1.75 4.29 1.75s3.16-.58 4.29-1.75c1.13-1.16 1.7-2.61 1.7-4.34V93.18c-.02-4.18-.5-7.99-1.46-11.41zM294.61 118.71c0 1.73-.58 3.17-1.75 4.34-1.16 1.16-2.61 1.75-4.34 1.75-1.66 0-3.06-.58-4.19-1.75-1.13-1.16-1.7-2.61-1.7-4.34V57.09c0-1.73.58-3.17 1.75-4.34 1.16-1.16 2.61-1.75 4.34-1.75s3.14.58 4.24 1.75 1.65 2.61 1.65 4.34v61.62zM358.82 98.17c0 5.45-1.21 10.25-3.64 14.41s-5.68 7.4-9.77 9.72c-4.09 2.33-8.66 3.49-13.71 3.49-5.05 0-9.62-1.16-13.71-3.49-4.09-2.33-7.34-5.57-9.77-9.72-2.43-4.15-3.64-8.96-3.64-14.41 0-5.45 1.21-10.25 3.64-14.41 2.43-4.15 5.68-7.41 9.77-9.77 4.09-2.36 8.66-3.54 13.71-3.54 5.05 0 9.62 1.18 13.71 3.54 4.09 2.36 7.34 5.62 9.77 9.77 2.43 4.16 3.64 8.96 3.64 14.41zm-11.96 0c0-3.39-.68-6.33-2.04-8.82-1.36-2.49-3.19-4.44-5.48-5.83-2.29-1.4-4.84-2.09-7.63-2.09s-5.33.7-7.63 2.09c-2.29 1.4-4.12 3.34-5.48 5.83-1.36 2.49-2.04 5.43-2.04 8.82 0 3.33.68 6.23 2.04 8.72 1.36 2.49 3.19 4.44 5.48 5.83 2.29 1.4 4.84 2.09 7.63 2.09s5.33-.7 7.63-2.09c2.29-1.4 4.12-3.34 5.48-5.83 1.36-2.49 2.04-5.4 2.04-8.72zM416.25 72.15c-1.13-1.13-2.56-1.69-4.29-1.69s-3.16.58-4.29 1.74c-1.13 1.16-1.7 2.61-1.7 4.34v.15c-.59-.55-1.22-1.1-1.94-1.64-1.76-1.33-3.84-2.43-6.23-3.29-2.39-.86-5.02-1.3-7.88-1.3-4.45 0-8.51 1.18-12.16 3.54-3.66 2.36-6.56 5.62-8.72 9.77-2.16 4.16-3.24 8.96-3.24 14.41 0 5.38 1.08 10.15 3.24 14.31s5.1 7.41 8.82 9.77c3.72 2.36 7.88 3.54 12.46 3.54 2.53 0 4.87-.42 7.03-1.25 2.16-.83 4.04-1.84 5.63-3.04 1.18-.89 2.18-1.78 3-2.69.02 1.68.58 3.1 1.69 4.24 1.13 1.16 2.56 1.75 4.29 1.75s3.16-.58 4.29-1.75c1.13-1.16 1.7-2.61 1.7-4.34V76.53c0-1.79-.57-3.25-1.7-4.38zm-11.61 34.49c-1.23 2.53-2.94 4.52-5.13 5.98-2.19 1.46-4.75 2.19-7.68 2.19-2.86 0-5.38-.73-7.58-2.19-2.19-1.46-3.91-3.46-5.13-5.98-1.23-2.52-1.84-5.35-1.84-8.47 0-3.19.61-6.05 1.84-8.57 1.23-2.53 2.94-4.52 5.13-5.98 2.19-1.46 4.72-2.19 7.58-2.19 2.92 0 5.48.73 7.68 2.19 2.19 1.46 3.9 3.46 5.13 5.98 1.23 2.53 1.84 5.38 1.84 8.57 0 3.12-.62 5.95-1.84 8.47zM478.37 52.7c-1.13-1.13-2.56-1.69-4.29-1.69s-3.16.58-4.29 1.75c-1.13 1.16-1.7 2.61-1.7 4.34v19.59c-.59-.55-1.22-1.1-1.94-1.64-1.76-1.33-3.84-2.43-6.23-3.29-2.39-.86-5.02-1.3-7.88-1.3-4.45 0-8.51 1.18-12.16 3.54-3.66 2.36-6.56 5.62-8.72 9.77-2.16 4.16-3.24 8.96-3.24 14.41 0 5.38 1.08 10.15 3.24 14.31s5.1 7.41 8.82 9.77c3.72 2.36 7.88 3.54 12.46 3.54 2.53 0 4.87-.42 7.03-1.25 2.16-.83 4.04-1.84 5.63-3.04 1.18-.89 2.18-1.78 3-2.69.02 1.68.58 3.1 1.69 4.24 1.13 1.16 2.56 1.75 4.29 1.75s3.16-.58 4.29-1.75c1.13-1.16 1.7-2.61 1.7-4.34V57.09c-.01-1.79-.57-3.25-1.7-4.39zm-11.62 53.94c-1.23 2.53-2.94 4.52-5.13 5.98-2.19 1.46-4.75 2.19-7.68 2.19-2.86 0-5.38-.73-7.58-2.19-2.19-1.46-3.91-3.46-5.13-5.98-1.23-2.52-1.84-5.35-1.84-8.47 0-3.19.61-6.05 1.84-8.57 1.23-2.53 2.94-4.52 5.13-5.98 2.19-1.46 4.72-2.19 7.58-2.19 2.92 0 5.48.73 7.68 2.19 2.19 1.46 3.9 3.46 5.13 5.98 1.23 2.53 1.84 5.38 1.84 8.57.01 3.12-.61 5.95-1.84 8.47z"/></g></g></switch></svg>